@startuml

title Class diagram which models class diagrams

package model.class <<folder>> {

	class UMLDiagram {
		'+ UMLDiagram()
	}

	package model.class.Classdiagram <<folder>> {

		 class A_ClassDiagram {
		 	'+ A_ClassDiagram()
		 	+ void addPackage(A_Package p)
		 	+ void removePackage(A_Package p)
		 	+ void addRelation (Relation r)
		 	+ void removeRelation (Relation r)
		 	+ String display()
		}
	}


	package model.class.package <<folder>> {
		class A_Package {
		}
	}

	package model.class.relation <<folder>> {
		class Relation {
		}
	}

	A_ClassDiagram "1" *-- "1..*" A_Package
	A_ClassDiagram "1" *-- "1..*" Relation


	package model.object.Objectdiagram <<folder>> {

		 class A_ObjectDiagram {
		 	'+ A_ObjectDiagram()
		 	+ void addPackage(A_PackageObject p)
		 	+ void removePackage(A_PackageObject p)
		 	+ void addRelation (RelationObject r)
		 	+ void removeRelation (RelationObject r)
		 	+ String display()
		}
	}

	package model.object.package <<folder>> {
		class PackageObject {
		}
	}

	package model.object.relation <<folder>> {
		class RelationObject {
		}
	}

	A_ObjectDiagram "1" *-- "1..*" PackageObject
	A_ObjectDiagram "1" *-- "1..*" RelationObject

	UMLDiagram  "1" *-- "1" A_ObjectDiagram
	UMLDiagram  "1" *-- "1" A_ClassDiagram
}



@enduml